<?xml version="1.0" standalone="no"?>
<!DOCTYPE svg PUBLIC "-//W3C//DTD SVG 20010904//EN"
 "http://www.w3.org/TR/2001/REC-SVG-20010904/DTD/svg10.dtd">
<svg version="1.0" xmlns="http://www.w3.org/2000/svg"
 width="600.000000pt" height="600.000000pt" viewBox="0 0 600.000000 600.000000"
 preserveAspectRatio="xMidYMid meet">

<g transform="translate(0.000000,600.000000) scale(0.100000,-0.100000)"
fill="#000000" stroke="none">
<path d="M2550 3810 l0 -1900 1300 0 1300 0 0 1900 0 1900 -1300 0 -1300 0 0
-1900z m2075 0 l0 -1375 -772 -3 -773 -2 0 1380 0 1380 773 -2 772 -3 0 -1375z"/>
<path d="M3220 4625 l0 -255 555 0 555 0 0 255 0 255 -555 0 -555 0 0 -255z"/>
<path d="M3220 3015 l0 -255 300 0 300 0 0 255 0 255 -300 0 -300 0 0 -255z"/>
<path d="M1730 2975 l0 -1905 1300 0 1300 0 0 265 0 265 -1035 0 -1035 0 0
580 0 580 80 0 80 0 0 255 0 255 -80 0 -80 0 0 550 0 550 80 0 80 0 0 255 0
255 -345 0 -345 0 0 -1905z"/>
<path d="M910 2170 l0 -1900 1300 0 1300 0 0 260 0 260 -1037 2 -1038 3 -3
1638 -2 1637 -260 0 -260 0 0 -1900z"/>
</g>
</svg>
